<svg width="176" height="23" viewBox="0 0 176 23" fill="none" xmlns="http://www.w3.org/2000/svg">
<g clip-path="url(#clip0_401_13549)">
<g clip-path="url(#clip1_401_13549)">
<path d="M72.2231 11.5365L63.5693 2.88269L54.9156 11.5365L63.5693 20.1903L72.2231 11.5365Z" stroke="#E53935" stroke-width="1.34982" stroke-miterlimit="10"/>
<path d="M121.012 11.4978L112.358 2.84399L103.705 11.4978L112.358 20.1516L121.012 11.4978Z" stroke="#E53935" stroke-width="1.34982" stroke-miterlimit="10"/>
<path d="M88.0899 21.7781L72.252 11.5195L88.0899 1.08081L103.748 11.5195L88.0899 21.7781Z" stroke="#E53935" stroke-width="1.34982" stroke-miterlimit="10"/>
<path d="M6.37988 11.5194H54.9736" stroke="#E53935" stroke-width="1.34982" stroke-miterlimit="10"/>
<path d="M5.30069 16.0193C7.78565 16.0193 9.8001 14.0049 9.8001 11.5199C9.8001 9.03497 7.78565 7.02051 5.30069 7.02051C2.81573 7.02051 0.80127 9.03497 0.80127 11.5199C0.80127 14.0049 2.81573 16.0193 5.30069 16.0193Z" fill="#E53935"/>
<path d="M169.619 11.5194H121.025" stroke="#E53935" stroke-width="1.34982" stroke-miterlimit="10"/>
<path d="M170.519 16.0193C173.004 16.0193 175.018 14.0049 175.018 11.5199C175.018 9.03497 173.004 7.02051 170.519 7.02051C168.034 7.02051 166.02 9.03497 166.02 11.5199C166.02 14.0049 168.034 16.0193 170.519 16.0193Z" fill="#E53935"/>
</g>
</g>
<defs>
<clipPath id="clip0_401_13549">
<rect width="174.757" height="22.8583" fill="white" transform="translate(0.621094)"/>
</clipPath>
<clipPath id="clip1_401_13549">
<rect width="174.757" height="22.857" fill="white" transform="translate(0.621094 0.000976562)"/>
</clipPath>
</defs>
</svg>
