<svg width="18" height="16" viewBox="0 0 18 16" fill="none" xmlns="http://www.w3.org/2000/svg">
<path fill-rule="evenodd" clip-rule="evenodd" d="M7.63284 2.88473C7.21919 2.47108 6.49603 2.05522 5.1618 2.38886C3.82298 2.72365 2.83532 3.72116 2.50725 4.95106C2.18528 6.15815 2.47661 7.69087 3.91841 9.13244L8.4458 13.6591C8.76234 13.9756 9.27342 13.9755 9.58991 13.6588C10.6066 12.6414 12.2222 11.0251 14.1148 9.13248C15.5559 7.6914 15.8474 6.15863 15.5255 4.95132C15.1975 3.72128 14.21 2.72365 12.8709 2.38887C11.5362 2.05519 10.813 2.47112 10.3994 2.88473C10.1731 3.11097 10.0174 3.36181 9.91813 3.56038C9.86917 3.6583 9.83592 3.73952 9.81597 3.7927C9.80605 3.81916 9.79957 3.83829 9.7962 3.8486L9.79359 3.85677C9.69238 4.20151 9.37597 4.4387 9.01621 4.43872C8.65645 4.43874 8.34002 4.2016 8.23876 3.85688L8.23615 3.84869C8.23277 3.83837 8.22629 3.81925 8.21636 3.79278C8.1964 3.73959 8.16314 3.65836 8.11417 3.56043C8.01485 3.36184 7.8591 3.11099 7.63284 2.88473ZM9.01611 1.9983C9.08886 1.91145 9.16785 1.82449 9.2535 1.73884C10.0553 0.937047 11.3577 0.340153 13.264 0.816734C15.1659 1.29222 16.6091 2.72538 17.0913 4.53382C17.5795 6.36499 17.0606 8.4784 15.2607 10.2784C13.3682 12.1708 11.7528 13.7871 10.7362 14.8043C9.787 15.7541 8.24964 15.7546 7.30001 14.8051L2.77262 10.2784C0.971951 8.47803 0.453032 6.36457 0.941475 4.53341C1.42383 2.72505 2.86726 1.29222 4.76867 0.816745C6.67467 0.340125 7.97697 0.937093 8.77872 1.73884C8.86437 1.82449 8.94336 1.91145 9.01611 1.9983Z" fill="#E53935"/>
</svg>
